<svg xmlns="http://www.w3.org/2000/svg" version="1.1" xmlns:xlink="http://www.w3.org/1999/xlink" xmlns:svgjs="http://svgjs.dev/svgjs" width="2000" height="1999" viewBox="0 0 2000 1999"><g transform="matrix(1,0,0,1,-0.431486880466764,-0.4312711370263287)"><svg viewBox="0 0 343 343" data-background-color="#ffffff" preserveAspectRatio="xMidYMid meet" height="1999" width="2000" xmlns="http://www.w3.org/2000/svg" xmlns:xlink="http://www.w3.org/1999/xlink"><g id="tight-bounds" transform="matrix(1,0,0,1,0.0740000000000407,0.07400000000001228)"><svg viewBox="0 0 342.85155851775386 342.85155851775386" height="342.85155851775386" width="342.85155851775386"><g><svg></svg></g><g><svg viewBox="0 0 342.85155851775386 342.85155851775386" height="342.85155851775386" width="342.85155851775386"><g><path d="M0 171.426c0-94.676 76.75-171.426 171.426-171.426 94.676 0 171.426 76.75 171.426 171.426 0 94.676-76.75 171.426-171.426 171.426-94.676 0-171.426-76.75-171.426-171.426zM171.426 339.376c92.757 0 167.951-75.194 167.95-167.95 0-92.757-75.194-167.951-167.95-167.951-92.757 0-167.951 75.194-167.951 167.951 0 92.757 75.194 167.951 167.951 167.95z" data-fill-palette-color="tertiary" fill="#8eb4e5" stroke="transparent"></path><ellipse rx="164.56874808852186" ry="164.56874808852186" cx="171.42577925887693" cy="171.42577925887693" fill="#8eb4e5" stroke="transparent" stroke-width="0" fill-opacity="1" data-fill-palette-color="tertiary"></ellipse></g><g transform="matrix(1,0,0,1,64.84655864529837,121.78118231992815)"><svg viewBox="0 0 213.1584412271571 99.28919387789756" height="99.28919387789756" width="213.1584412271571"><g><svg viewBox="0 0 213.1584412271571 99.28919387789756" height="99.28919387789756" width="213.1584412271571"><g><svg viewBox="0 0 213.1584412271571 99.28919387789756" height="99.28919387789756" width="213.1584412271571"><g transform="matrix(1,0,0,1,0,60.7544669811083)"><svg viewBox="0 0 213.1584412271571 38.534726896789266" height="38.534726896789266" width="213.1584412271571"><g id="textblocktransform"><svg viewBox="0 0 213.1584412271571 38.534726896789266" height="38.534726896789266" width="213.1584412271571" id="textblock"><g><svg viewBox="0 0 213.1584412271571 38.534726896789266" height="38.534726896789266" width="213.1584412271571"><g transform="matrix(1,0,0,1,0,0)"><svg width="213.1584412271571" viewBox="0.05 -34.79 196.60999999999999 35.55" height="38.534726896789266" data-palette-color="#ffffff"><path d="M14.33 0.42L14.33 0.42Q11.96 0.42 10.38 0.05L10.38 0.05Q8.18-0.42 7.15-1.39L7.15-1.39Q4.86-6.25 3.22-12.04L3.22-12.04Q0.95-20.04 0.05-28.56L0.05-28.56Q1.15-30.18 3.05-31.07 4.96-31.96 7.3-31.96L7.3-31.96Q10.82-31.96 12.83-30.62 14.84-29.27 14.84-26.78L14.84-26.78Q14.67-24.93 14.54-21.34 14.4-17.75 14.4-14.84L14.4-14.84Q14.4-14.04 14.56-13.59 14.72-13.13 15.23-13.13L15.23-13.13Q15.43-13.13 15.72-13.21L15.72-13.21Q15.7-13.43 15.7-13.94L15.7-13.94 15.7-14.79Q15.7-18.33 15.94-22.96 16.19-27.59 16.53-29.86L16.53-29.86Q18.75-31.23 21.75-31.23 24.76-31.23 26.59-30.4L26.59-30.4Q28.78-29.37 28.91-27.39L28.91-27.39Q28.78-25 28.45-22.68 28.13-20.36 27.66-17.33 27.2-14.31 27.08-13.33L27.08-13.33Q27.27-13.23 27.59-13.23 27.91-13.23 28.17-13.48 28.44-13.72 28.61-14.65L28.61-14.65Q29.37-18.55 29.86-22.89 30.35-27.22 30.49-30.44L30.49-30.44Q32.74-31.96 36.69-31.96L36.69-31.96Q39.89-31.96 41.8-30.26 43.7-28.56 43.7-25.71L43.7-25.71Q43.7-23.8 41.89-15.72L41.89-15.72Q40.97-11.47 40.11-8.46 39.26-5.44 38.72-4.22L38.72-4.22Q37.6-1.76 35.36-0.67 33.13 0.42 29.66 0.42L29.66 0.42Q28.27 0.42 26.45 0 24.63-0.42 23.68-0.93L23.68-0.93Q23.19-1.68 22.58-3.22 21.97-4.76 21.83-5.54L21.83-5.54Q20.87-5.52 20.87-4.52L20.87-4.52Q20.87-3.74 21.63-1.64L21.63-1.64Q19.07 0.42 14.33 0.42ZM57.81 0.76L57.81 0.76Q51.05 0.76 47.14-3L47.14-3Q43.14-6.79 43.14-13.37 43.14-19.95 47.26-23.8L47.26-23.8Q51.07-27.39 56.91-27.39 62.74-27.39 66.27-24.18 69.8-20.97 69.8-16.28L69.8-16.28Q69.8-12.11 66.89-9.99L66.89-9.99Q64.21-7.98 59.57-7.98L59.57-7.98Q56.1-7.98 53.71-9.42L53.71-9.42Q53.51-9.28 53.51-8.89L53.51-8.89Q53.51-8.15 55.44-7.54L55.44-7.54Q57.37-6.88 59.82-6.88 62.28-6.88 64.29-7.51 66.31-8.13 67.53-8.98L67.53-8.98Q68.11-8.47 68.47-7.09 68.82-5.71 68.82-4.58 68.82-3.44 68.6-2.56L68.6-2.56Q66.7-0.95 64.69-0.27L64.69-0.27Q61.86 0.76 57.81 0.76ZM57.49-15.77L57.49-15.77Q58.71-15.77 58.71-16.7L58.71-16.7Q58.71-17.58 57.42-17.58 56.13-17.58 55.93-16.19L55.93-16.19Q56.61-15.77 57.49-15.77ZM95.62-16.87L95.62-12.08Q95.62-10.33 96.02-9.25 96.41-8.18 97.38-7.57L97.38-7.57Q97.41-7.45 97.41-7.1L97.41-7.1 97.41-6.67Q97.41-3.2 95.31-1.27L95.31-1.27Q93.45 0.44 90.72 0.44L90.72 0.44Q88.86 0.44 87.32-0.44 85.79-1.32 85.13-2.98L85.13-2.98Q84.3-2.98 84.3-2.17L84.3-2.17Q84.3-1.49 85.15-0.63L85.15-0.63Q83.56 0.44 80.37 0.44L80.37 0.44Q75.85 0.44 73.15-2.01 70.45-4.47 70.45-8.87 70.45-13.28 73.31-15.7L73.31-15.7Q75.92-17.87 80.07-17.87L80.07-17.87Q81.49-17.87 82.81-17.68L82.81-17.68Q83.69-17.5 83.76-17.48L83.76-17.48Q83.83-17.72 83.83-17.9L83.83-17.9Q83.83-18.53 82.76-18.75 81.68-18.97 79.95-18.97L79.95-18.97Q76.26-18.97 73.65-17.48L73.65-17.48Q72.46-19.51 72.46-22.61L72.46-22.61Q72.46-24.37 72.9-25.22L72.9-25.22Q74.65-26.03 77.36-26.65 80.07-27.27 83.08-27.27L83.08-27.27Q89.28-27.27 92.45-24.56 95.62-21.85 95.62-16.87L95.62-16.87ZM82.95-10.89L82.95-10.89Q81.93-10.89 81.93-9.96L81.93-9.96Q81.93-9.08 83.12-9.08L83.12-9.08Q83.95-9.08 84.35-9.48 84.74-9.89 84.74-10.89L84.74-10.89Q84.74-10.89 82.95-10.89ZM99.89-8.37L99.89-15.43 101.41-15.43Q102.63-15.43 102.63-16.24L102.63-16.24Q102.63-16.33 102.58-16.53L102.58-16.53 97.11-16.53Q96.57-18.24 96.57-20.35 96.57-22.46 96.89-23.78L96.89-23.78Q98.28-24.66 100.72-26.46L100.72-26.46Q101.41-28.13 102.51-31.74L102.51-31.74Q102.65-32.23 102.85-32.69L102.85-32.69Q104.75-33.18 107.19-33.18 109.64-33.18 112-32.67L112-32.67 112-26.68 116.23-26.68Q117.64-24.54 117.64-21.63L117.64-21.63Q117.64-20.31 117.28-18.92 116.91-17.53 116.23-16.55L116.23-16.55 112.74-16.55 112.74-12.87Q112.74-9.74 115.35-9.74L115.35-9.74 116.4-9.74Q116.91-7.89 116.91-6.52L116.91-6.52Q116.91-3.15 114.8-1.35 112.69 0.44 108.67 0.44 104.66 0.44 102.28-1.79 99.89-4.03 99.89-8.37L99.89-8.37ZM144.4-16.85L144.33-12.08Q144.33-10.33 144.72-9.25 145.11-8.18 146.08-7.57L146.08-7.57Q146.11-7.45 146.11-7.1L146.11-7.1 146.11-6.67Q146.11-3.3 144.17-1.43 142.23 0.44 139.16 0.44 136.1 0.44 134.19-1.29L134.19-1.29Q131.97-3.27 131.97-7.3L131.97-7.3Q131.97-9.01 132.13-10.31 132.29-11.62 132.35-12.18 132.41-12.74 132.49-13.23 132.56-13.72 132.56-14.67 132.56-15.63 132.3-16.04 132.05-16.46 131.59-16.46 131.14-16.46 130.8-16.26L130.8-16.26 131.12-12.28Q130.68-9.81 130.68-7.06 130.68-4.3 131.92-2.03L131.92-2.03Q129.53 0.44 125.21 0.44L125.21 0.44Q122.74 0.44 120.94-0.85L120.94-0.85Q118.84-2.32 118.84-4.74L118.84-4.74 118.84-33.23Q120.01-33.91 121.66-34.35 123.31-34.79 124.99-34.79L124.99-34.79Q127.8-34.79 129.63-33.69L129.63-33.69Q131.7-32.4 131.7-29.98L131.7-29.98 131.7-27.66Q129.58-27.54 127.63-26.44L127.63-26.44Q125.94-25.46 125.94-24.66L125.94-24.66Q125.94-24.39 126.14-24.18 126.33-23.97 126.6-23.93L126.6-23.93Q127.63-25.12 129.49-25.93 131.36-26.73 133.93-26.73 136.49-26.73 138.54-25.95L138.54-25.95Q141.13-24.98 142.62-22.97L142.62-22.97Q144.4-20.53 144.4-16.85L144.4-16.85ZM161.07 0.76L161.07 0.76Q154.31 0.76 150.4-3L150.4-3Q146.4-6.79 146.4-13.37 146.4-19.95 150.52-23.8L150.52-23.8Q154.33-27.39 160.17-27.39 166-27.39 169.53-24.18 173.06-20.97 173.06-16.28L173.06-16.28Q173.06-12.11 170.15-9.99L170.15-9.99Q167.47-7.98 162.83-7.98L162.83-7.98Q159.36-7.98 156.97-9.42L156.97-9.42Q156.77-9.28 156.77-8.89L156.77-8.89Q156.77-8.15 158.7-7.54L158.7-7.54Q160.63-6.88 163.09-6.88 165.54-6.88 167.55-7.51 169.57-8.13 170.79-8.98L170.79-8.98Q171.37-8.47 171.73-7.09 172.08-5.71 172.08-4.58 172.08-3.44 171.86-2.56L171.86-2.56Q169.96-0.95 167.96-0.27L167.96-0.27Q165.12 0.76 161.07 0.76ZM160.75-15.77L160.75-15.77Q161.97-15.77 161.97-16.7L161.97-16.7Q161.97-17.58 160.68-17.58 159.39-17.58 159.19-16.19L159.19-16.19Q159.88-15.77 160.75-15.77ZM181.48 0.32L181.48 0.32Q178.57 0.32 176.84-0.73L176.84-0.73Q174.91-1.83 174.91-3.98L174.91-3.98 174.91-16.55Q173.47-18.58 173.47-21.55 173.47-24.51 174.91-26.68L174.91-26.68 178.65-26.68Q181.53-26.68 182.77-24.83L182.77-24.83Q182.16-24.15 181.7-23.1 181.24-22.05 181.24-21.59 181.24-21.14 181.47-20.92 181.7-20.7 182.14-20.7L182.14-20.7Q182.99-24.1 185.39-25.68L185.39-25.68Q187.36-27.03 190.27-27.03L190.27-27.03Q193.88-27.03 195.93-25.49L195.93-25.49Q196.66-23.54 196.66-20.72 196.66-17.9 195.54-15.6L195.54-15.6Q194.71-15.16 193.25-14.86 191.78-14.55 190.29-14.55 188.8-14.55 187.62-14.76 186.44-14.97 185.9-15.14L185.9-15.14Q185.7-14.94 185.7-14.58 185.7-14.21 186.18-14.03 186.65-13.84 187.78-13.62L187.78-13.62 187.78-1.37Q185.12 0.32 181.48 0.32Z" opacity="1" transform="matrix(1,0,0,1,0,0)" fill="#ffffff" class="wordmark-text-0" data-fill-palette-color="quaternary" id="text-0"></path></svg></g></svg></g></svg></g></svg></g><g transform="matrix(1,0,0,1,79.5269890169543,0)"><svg viewBox="0 0 54.10446319324851 51.657342794221876" height="51.657342794221876" width="54.10446319324851"><g><svg xmlns="http://www.w3.org/2000/svg" xmlns:xlink="http://www.w3.org/1999/xlink" version="1.1" x="0" y="0" viewBox="0 2.261 100.001 95.47800000000001" enable-background="new 0 0 100 100" xml:space="preserve" width="54.10446319324851" height="51.657342794221876" class="icon-icon-0" data-fill-palette-color="quaternary" id="icon-0"><g fill="#ffffff" data-fill-palette-color="quaternary"><path d="M58.585 35.762l6.475 0.398-6.037 2.381C58.925 37.599 58.778 36.672 58.585 35.762zM57.405 31.785l6.455-0.619-5.587 3.293C58.03 33.548 57.74 32.655 57.405 31.785zM55.613 28.042l6.282-1.622-5.004 4.127C56.51 29.688 56.082 28.852 55.613 28.042zM53.269 24.641l13.869-7.226-11.932 9.95C54.617 26.415 53.97 25.505 53.269 24.641zM49.974 21.247L72.151 2.261 52.765 24.038C51.904 23.04 50.972 22.107 49.974 21.247zM46.745 18.867L58.179 5.559 49.489 20.84C48.619 20.126 47.703 19.466 46.745 18.867zM43.464 17.119l6.289-9.331-3.784 10.609C45.16 17.929 44.323 17.502 43.464 17.119zM39.552 15.738l4.006-7.816-1.331 8.684C41.356 16.271 40.464 15.98 39.552 15.738zM35.471 14.989l2.381-6.038 0.397 6.475C37.34 15.233 36.413 15.086 35.471 14.989zM31.323 14.886l1.408-6.337 1.407 6.337c-0.466-0.024-0.936-0.037-1.407-0.037C32.259 14.849 31.79 14.862 31.323 14.886zM27.212 15.426l0.398-6.475 2.381 6.038C29.05 15.086 28.122 15.233 27.212 15.426zM23.235 16.606l-0.619-6.455 3.294 5.587C24.999 15.98 24.106 16.271 23.235 16.606zM19.493 18.398l-1.621-6.282 4.127 5.003C21.138 17.502 20.302 17.929 19.493 18.398zM16.078 20.754L13.492 14.8l4.861 4.298C17.565 19.61 16.806 20.163 16.078 20.754zM13.073 23.612l-3.486-5.477 5.477 3.486C14.365 22.25 13.7 22.914 13.073 23.612zM10.549 26.903l-4.298-4.862 5.954 2.586C11.614 25.355 11.062 26.114 10.549 26.903zM8.57 30.547L3.567 26.42l6.281 1.622C9.38 28.852 8.952 29.688 8.57 30.547zM7.188 34.459l-5.586-3.294 6.455 0.619C7.722 32.655 7.432 33.547 7.188 34.459zM6.44 38.541L0.403 36.16l6.475-0.399C6.685 36.671 6.538 37.599 6.44 38.541zM6.337 42.688L0 41.28l6.337-1.408C6.312 40.339 6.3 40.808 6.3 41.28S6.312 42.222 6.337 42.688zM6.878 46.799L0.403 46.4 6.44 44.02C6.538 44.961 6.685 45.889 6.878 46.799zM8.058 50.775l-6.456 0.619 5.587-3.294C7.432 49.013 7.722 49.905 8.058 50.775zM9.849 54.518L3.567 56.14l5.003-4.127C8.952 52.873 9.38 53.709 9.849 54.518zM9.483 56.862l1.065-1.205c0.089 0.138 0.18 0.274 0.271 0.409C10.36 56.311 9.914 56.576 9.483 56.862z" fill="#ffffff" data-fill-palette-color="quaternary"></path><path d="M9.914 41.28c0-12.602 10.216-22.817 22.817-22.817 12.439 0 22.553 9.954 22.812 22.331-2.644 1.213-5.014 2.919-6.989 5-1.877-0.574-3.867-0.882-5.926-0.882-7.799 0-14.562 4.409-17.942 10.868-2.015-0.961-4.27-1.5-6.648-1.5-1.288 0-2.539 0.158-3.735 0.455C11.543 50.963 9.914 46.312 9.914 41.28z" fill="#ffffff" data-fill-palette-color="quaternary"></path><path d="M83.893 59.657c1.524-0.798 3.259-1.249 5.099-1.249 6.08 0 11.009 4.928 11.009 11.009 0 1.729-0.398 3.364-1.108 4.821H79.091l-0.049-0.102-0.092 0.102H7.092c-0.571-1.389-0.887-2.909-0.887-4.503 0-6.534 5.298-11.832 11.832-11.832 3.284 0 6.255 1.338 8.399 3.498 1.699-7.371 8.305-12.867 16.191-12.867 2.516 0 4.9 0.559 7.037 1.559 3.462-4.687 9.025-7.727 15.299-7.727C74.882 42.367 83.026 49.964 83.893 59.657z" fill="#ffffff" data-fill-palette-color="quaternary"></path><path fill-rule="evenodd" clip-rule="evenodd" d="M52.361 78.836c0.342-1.14 3.561-5.177 3.615-5.177 0.02 0 0.853 4.037 0.511 5.177-0.342 1.139-1.543 2.062-2.682 2.062C52.666 80.898 52.02 79.975 52.361 78.836z" fill="#ffffff" data-fill-palette-color="quaternary"></path><path fill-rule="evenodd" clip-rule="evenodd" d="M57.251 84.268c0.342-1.139 3.561-5.176 3.615-5.176 0.02 0 0.852 4.037 0.51 5.176-0.342 1.14-1.543 2.063-2.682 2.063S56.909 85.407 57.251 84.268z" fill="#ffffff" data-fill-palette-color="quaternary"></path><path fill-rule="evenodd" clip-rule="evenodd" d="M65.399 78.836c0.342-1.14 3.561-5.177 3.615-5.177 0.02 0 0.852 4.037 0.51 5.177-0.342 1.139-1.542 2.062-2.682 2.062C65.704 80.898 65.058 79.975 65.399 78.836z" fill="#ffffff" data-fill-palette-color="quaternary"></path><path fill-rule="evenodd" clip-rule="evenodd" d="M70.288 84.268c0.342-1.139 3.561-5.176 3.616-5.176 0.02 0 0.852 4.037 0.51 5.176-0.342 1.14-1.542 2.063-2.682 2.063S69.946 85.407 70.288 84.268z" fill="#ffffff" data-fill-palette-color="quaternary"></path><path fill-rule="evenodd" clip-rule="evenodd" d="M78.438 78.836c0.342-1.14 3.561-5.177 3.616-5.177 0.02 0 0.852 4.037 0.51 5.177-0.342 1.139-1.543 2.062-2.682 2.062C78.742 80.898 78.096 79.975 78.438 78.836z" fill="#ffffff" data-fill-palette-color="quaternary"></path><path fill-rule="evenodd" clip-rule="evenodd" d="M83.327 84.268c0.342-1.139 3.561-5.176 3.615-5.176 0.02 0 0.852 4.037 0.51 5.176-0.342 1.14-1.542 2.063-2.682 2.063C83.632 86.331 82.985 85.407 83.327 84.268z" fill="#ffffff" data-fill-palette-color="quaternary"></path><path fill-rule="evenodd" clip-rule="evenodd" d="M91.476 78.836c0.342-1.14 3.561-5.177 3.615-5.177 0.02 0 0.852 4.037 0.511 5.177-0.342 1.139-1.542 2.062-2.682 2.062S91.134 79.975 91.476 78.836z" fill="#ffffff" data-fill-palette-color="quaternary"></path><path fill-rule="evenodd" clip-rule="evenodd" d="M53.828 95.676c0.342-1.139 3.561-5.176 3.616-5.176 0.019 0 0.851 4.037 0.51 5.176-0.342 1.141-1.543 2.063-2.682 2.063C54.133 97.739 53.486 96.816 53.828 95.676z" fill="#ffffff" data-fill-palette-color="quaternary"></path><path fill-rule="evenodd" clip-rule="evenodd" d="M61.978 90.244c0.342-1.14 3.561-5.176 3.615-5.176 0.02 0 0.852 4.036 0.51 5.176-0.342 1.139-1.543 2.062-2.682 2.062S61.635 91.383 61.978 90.244z" fill="#ffffff" data-fill-palette-color="quaternary"></path><path fill-rule="evenodd" clip-rule="evenodd" d="M66.866 95.676c0.342-1.139 3.561-5.176 3.615-5.176 0.02 0 0.852 4.037 0.51 5.176-0.342 1.141-1.542 2.063-2.682 2.063C67.171 97.739 66.524 96.816 66.866 95.676z" fill="#ffffff" data-fill-palette-color="quaternary"></path><path fill-rule="evenodd" clip-rule="evenodd" d="M75.015 90.244c0.342-1.14 3.561-5.176 3.616-5.176 0.02 0 0.852 4.036 0.51 5.176-0.342 1.139-1.542 2.062-2.682 2.062S74.673 91.383 75.015 90.244z" fill="#ffffff" data-fill-palette-color="quaternary"></path><path fill-rule="evenodd" clip-rule="evenodd" d="M79.904 95.676c0.342-1.139 3.561-5.176 3.616-5.176 0.02 0 0.852 4.037 0.51 5.176-0.342 1.141-1.543 2.063-2.682 2.063C80.209 97.739 79.562 96.816 79.904 95.676z" fill="#ffffff" data-fill-palette-color="quaternary"></path><path fill-rule="evenodd" clip-rule="evenodd" d="M88.054 90.244c0.342-1.14 3.561-5.176 3.615-5.176 0.02 0 0.852 4.036 0.51 5.176-0.342 1.139-1.543 2.062-2.682 2.062S87.712 91.383 88.054 90.244z" fill="#ffffff" data-fill-palette-color="quaternary"></path><path fill-rule="evenodd" clip-rule="evenodd" d="M95.223 42.765l-1.945-0.343 1.55-1.085c0.619-0.434 0.77-1.287 0.336-1.906l-0.072-0.103c-0.434-0.619-1.287-0.77-1.906-0.336l-3.995 2.797-3.624-0.639 2.555-2.836 4.871-0.255c0.754-0.04 1.334-0.684 1.295-1.438l-0.007-0.125c-0.04-0.755-0.684-1.335-1.438-1.295l-1.889 0.099 1.322-1.468c0.506-0.562 0.46-1.427-0.102-1.933l-0.094-0.083c0 0 0 0 0 0l-0.064-0.058c-0.561-0.506-1.427-0.461-1.933 0.101l-1.351 1.5-0.105-2.012c-0.039-0.755-0.684-1.334-1.438-1.295l-0.125 0.006c-0.756 0.04-1.336 0.684-1.296 1.438l0.255 4.871-2.855 3.17-1.598-3.956 1.906-4.489c0.295-0.696-0.029-1.5-0.726-1.795l-0.115-0.049c-0.696-0.295-1.499 0.029-1.795 0.725l-0.787 1.854-0.756-1.871c-0.283-0.701-1.081-1.04-1.782-0.756l-0.115 0.047c-0.001 0-0.001 0-0.001 0l-0.08 0.033c-0.701 0.283-1.04 1.081-0.757 1.782l0.74 1.832-1.74-0.739c-0.696-0.295-1.5 0.029-1.795 0.725l-0.049 0.115c-0.296 0.696 0.029 1.5 0.725 1.794l4.489 1.906 1.43 3.539-4.044-0.713-2.797-3.995c-0.434-0.62-1.288-0.77-1.907-0.336l-0.103 0.072c-0.619 0.434-0.77 1.287-0.336 1.906l1.155 1.65-1.987-0.351c-0.744-0.131-1.455 0.366-1.586 1.11L68.735 39.7c0 0.001 0 0.001 0 0.001l-0.016 0.085c-0.131 0.744 0.366 1.454 1.111 1.585l1.945 0.343-1.55 1.085c-0.619 0.434-0.77 1.287-0.336 1.906l0.071 0.103c0.434 0.619 1.287 0.77 1.906 0.336l3.996-2.797 4.119 0.727-2.707 3.005-4.87 0.255c-0.755 0.04-1.335 0.684-1.296 1.438l0.007 0.125c0.04 0.755 0.684 1.335 1.438 1.295l1.889-0.099-1.322 1.468c-0.506 0.562-0.46 1.427 0.102 1.933l0.094 0.084c0.561 0.506 1.427 0.46 1.933-0.102l1.409-1.564 0.111 2.134c0.039 0.755 0.684 1.335 1.438 1.296l0.125-0.008c0.755-0.039 1.335-0.684 1.296-1.438l-0.256-4.871 2.855-3.171 1.599 3.957-1.905 4.49c-0.296 0.695 0.029 1.499 0.725 1.795l0.115 0.049c0.695 0.295 1.5-0.029 1.795-0.726l0.835-1.968 0.788 1.952c0.283 0.7 1.082 1.04 1.783 0.757l0.115-0.047c0.701-0.283 1.039-1.082 0.756-1.782l-0.74-1.832 1.742 0.739c0.695 0.295 1.499-0.029 1.795-0.725l0.049-0.115c0.295-0.696-0.029-1.5-0.726-1.795l-4.489-1.906-1.516-3.75 3.785 0.667 2.798 3.995c0.434 0.619 1.287 0.77 1.906 0.336l0.103-0.072c0.619-0.434 0.77-1.287 0.336-1.907l-1.226-1.751 2.073 0.366c0.744 0.131 1.454-0.366 1.586-1.11l0.021-0.123C96.464 43.606 95.968 42.896 95.223 42.765z" fill="#ffffff" data-fill-palette-color="quaternary"></path></g></svg></g></svg></g><g></g></svg></g></svg></g></svg></g></svg></g><defs></defs></svg><rect width="342.85155851775386" height="342.85155851775386" fill="none" stroke="none" visibility="hidden"></rect></g></svg></g></svg>